# AST/ASF file generated using VICON BodyLanguage
# -----------------------------------------------
:version 1.10
:name VICON
:units
  mass 1.0
  length 0.45
  angle deg
:documentation
   .ast/.asf automatically generated from VICON data using
   VICON BodyBuilder and BodyLanguage model FoxedUp or BRILLIANT.MOD
:root
   order TX TY TZ RX RY RZ
   axis XYZ
   position 0 0 0  
   orientation 0 0 0 
:bonedata
  begin
     id 1 
     name lhipjoint
     direction 0.645893 -0.654526 0.392961 
     length 2.38111 
     axis 0 0 0  XYZ
  end
  begin
     id 2 
     name lfemur
     direction 0.34202 -0.939693 0  
     length 6.6822  
     axis 0 0 20  XYZ
    dof rx ry rz
    limits (-160.0 20.0)
           (-70.0 70.0)
           (-60.0 70.0)
  end
  begin
     id 3 
     name ltibia
     direction 0.34202 -0.939693 0   
     length 6.93904   
     axis 0 0 20   XYZ
    dof rx
    limits (-10.0 170.0)
  end
  begin
     id 4 
     name lfoot
     direction 0.0694967 -0.190941 0.979138   
     length 2.13616   
     axis -90 7.62852e-016 20   XYZ
    dof rx rz
    limits (-45.0 90.0)
           (-70.0 20.0)
  end
  begin
     id 5 
     name ltoes
     direction 1.535e-011 -4.2202e-011 1   
     length 1.07536   
     axis -90 7.62852e-016 20   XYZ
    dof rx
    limits (-90.0 20.0)
  end
  begin
     id 6 
     name rhipjoint
     direction -0.700219 -0.612087 0.367481   
     length 2.54621  
     axis 0 0 0  XYZ 
  end
  begin
     id 7 
     name rfemur
     direction -0.34202 -0.939693 0   
     length 6.55353   
     axis 0 0 -20   XYZ
    dof rx ry rz
    limits (-160.0 20.0)
           (-70.0 70.0)
           (-70.0 60.0)
  end
  begin
     id 8 
     name rtibia
     direction -0.34202 -0.939693 0   
     length 6.8736   
     axis 0 0 -20   XYZ
    dof rx
    limits (-10.0 170.0)
 end
 begin
     id 9 
     name rfoot
     direction -0.0679995 -0.186827 0.980037   
     length 2.1218  
     axis -90 -7.62852e-016 -20   XYZ
    dof rx rz
    limits (-45.0 90.0)
           (-20.0 70.0)
  end
  begin
     id 10 
     name rtoes
     direction -1.53589e-011 -4.21772e-011 1   
     length 1.06864   
     axis -90 -7.62852e-016 -20   XYZ
    dof rx
    limits (-90.0 20.0)
  end
  begin
     id 11 
     name lowerback
     direction -0.0416607 0.996347 -0.0745409   
     length 2.12205   
     axis 0 0 0   XYZ
    dof rx ry rz
    limits (-20.0 45.0)
           (-30.0 30.0)
           (-30.0 30.0)
  end
  begin
     id 12 
     name upperback
     direction -0.000153993 0.999276 -0.0380568   
     length 2.12759   
     axis 0 0 0   XYZ
    dof rx ry rz
    limits (-20.0 45.0)
           (-30.0 30.0)
           (-30.0 30.0)
  end
  begin
     id 13 
     name thorax
     direction 0.0187671 0.999821 -0.00241421   
     length 2.13704   
     axis 0 0 0   XYZ
    dof rx ry rz
    limits (-20.0 45.0)
           (-30.0 30.0)
           (-30.0 30.0)
  end
  begin
     id 14 
     name lowerneck
     direction 0.0268157 0.964865 0.261374   
     length 1.65253   
     axis 0 0 0   XYZ
    dof rx ry rz
    limits (-20.0 45.0)
           (-30.0 30.0)
           (-30.0 30.0)
  end
  begin
     id 15 
     name upperneck
     direction 0.00263774 0.939908 -0.341418   
     length 1.72375   
     axis 0 0 0   XYZ
    dof rx ry rz
    limits (-20.0 45.0)
           (-30.0 30.0)
           (-30.0 30.0)
  end
  begin
     id 16
     name head
     direction -0.00526001 0.989001 -0.147818  
     length 1.74878  
     axis 0 0 0   XYZ
    dof rx ry rz
    limits (-20.0 45.0)
           (-30.0 30.0)
           (-30.0 30.0)
  end
  begin
     id 17 
     name lclavicle
     direction 0.881214 0.461162 -0.103884  
     length 3.25108  
     axis 0 0 0   XYZ
    dof ry rz
    limits (-20.0 10.0)
           (0.0 20.0)
  end
  begin
     id 18 
     name lhumerus
     direction 1 -4.4899e-011 3.38092e-027   
     length 4.87408   
     axis 180 -30 -90   XYZ
    dof rx ry rz
    limits (-60.0 90.0)
           (-90.0 90.0)
           (-90.0 90.0)
  end
  begin
     id 19
     name lradius
     direction 1 -4.48931e-011 9.96288e-027   
     length 2.76729   
     axis 180 -30 -90   XYZ
    dof rx
    limits (-10.0 170.0)
  end
  begin
     id 20
     name lwrist
     direction 1 -4.4896e-011 1.50617e-026   
     length 1.38364   
     axis -9.31234e-015 90 90   XYZ
    dof ry
    limits (-180.0 0.0)
 end
  begin
     id 21 
     name lhand
     direction 1 -4.49038e-011 3.01286e-026   
     length 0.98922   
     axis -1.92217e-014 90 90   XYZ
    dof rx rz
    limits (-90.0 90.0)
           (-45.0 45.0)
  end
  begin
     id 22 
     name lfingers
     direction 1 -4.49051e-011 6.02588e-026   
     length 0.797535   
     axis -3.84436e-014 90 90   XYZ
    dof rx
    limits (0.0 90.0)
  end
  begin
     id 23
     name lthumb
     direction 0.707107 -6.34901e-011 0.707107   
     length 1.14511   
     axis -90 45 2.19363e-014   XYZ
    dof rx rz
    limits (-45.0 45.0)
           (-45.0 45.0)
  end
  begin
     id 24 
     name rclavicle
     direction -0.893894 0.441652 -0.0767889   
     length 3.29361  
     axis 0 0 0   XYZ 
    dof ry rz
    limits (-10.0 20.0)
           (-20.0 0.0)
  end
  begin
     id 25 
     name rhumerus
     direction -1 -4.48945e-011 8.0491e-028  
     length 4.71404   
     axis 180 30 90   XYZ
    dof rx ry rz
    limits (-90.0 60.0)
           (-90.0 90.0)
           (-90.0 90.0)
  end
  begin
     id 26 
     name rradius
     direction -1 -4.48986e-011 9.27795e-027   
     length 2.83468   
     axis 180 30 90   XYZ
    dof rx
    limits (-10.0 170.0)
  end
  begin
     id 27 
     name rwrist
     direction -1 -4.49029e-011 1.5064e-026   
     length 1.41734   
     axis -9.31234e-015 -90 -90   XYZ
    dof ry
    limits (-180.0 0.0)
  end
  begin
     id 28
     name rhand
     direction -1 -4.48857e-011 3.01165e-026   
     length 0.868195   
     axis -1.92217e-014 -90 -90   XYZ
    dof rx rz
    limits (-90.0 90.0)
           (-45.0 45.0)
  end
  begin
     id 29
     name rfingers
     direction -1 -4.49048e-011 6.02585e-026   
     length 0.699961   
     axis -3.84436e-014 -90 -90   XYZ
    dof rx
    limits (0.0 90.0)
  end
  begin
     id 30
     name rthumb
     direction -0.707107 -6.34854e-011 0.707107   
     length 1.00501   
     axis -90 -45 -2.19363e-014   XYZ
    dof rx rz
    limits (-45.0 45.0)
           (-45.0 45.0)
  end
:hierarchy
  begin
    root lhipjoint rhipjoint lowerback
    lhipjoint lfemur
    lfemur ltibia
    ltibia lfoot
    lfoot ltoes
    rhipjoint rfemur
    rfemur rtibia
    rtibia rfoot
    rfoot rtoes
    lowerback upperback
    upperback thorax
    thorax lowerneck lclavicle rclavicle
    lowerneck upperneck
    upperneck head
    lclavicle lhumerus
    lhumerus lradius
    lradius lwrist
    lwrist lhand lthumb
    lhand lfingers
    rclavicle rhumerus
    rhumerus rradius
    rradius rwrist
    rwrist rhand rthumb
    rhand rfingers
  end

#!OML:ASF H:\ManfredObstacles\Project 1\Capture day 2\Session 1\male.ASF
:FULLY-SPECIFIED
:DEGREES
81
root 1.59544 15.5823 19.6602 -175.212 -4.37705 -181.569
lowerback -1.96531 -3.27767 -3.69175
upperback 2.57301 -4.32028 0.898132
thorax 4.10181 -2.29447 2.74003
lowerneck -28.4357 -1.54201 4.4788
upperneck 47.4628 3.65017 -2.73553
head 29.4412 3.66856 -0.511864
rclavicle -3.42904e-014 9.74045e-015
rhumerus -51.7654 -20.6273 -60.0046
rradius 26.1867
rwrist 33.8578
rhand -4.92276 -6.67871
rfingers 7.12502
rthumb 20.8676 -35.5764
lclavicle -3.42904e-014 9.74045e-015
lhumerus -24.4426 -16.425 92.5568
lradius 47.3192
lwrist -31.9044
lhand -6.3312 3.56208
lfingers 7.12502
lthumb 19.5139 32.6028
rfemur -31.3577 0.925368 21.7957
rtibia 32.4593
rfoot -0.426503 -12.8698
rtoes -9.16058
lfemur 2.15034 -0.939862 -21.7963
ltibia 46.0241
lfoot 15.8967 3.7949
ltoes -7.68797
82
root 1.61759 15.5954 19.5589 -175.085 -4.25159 -181.606
lowerback -1.74561 -3.21185 -3.80282
upperback 2.67763 -4.2426 0.903751
thorax 4.0892 -2.26387 2.82204
lowerneck -28.4433 -1.50154 4.43313
upperneck 47.3333 3.5945 -2.66744
head 29.2102 3.61616 -0.492129
rclavicle -3.91854e-014 8.54774e-015
rhumerus -50.5271 -20.0948 -61.4497
rradius 26.5346
rwrist 33.5416
rhand -4.93877 -6.72317
rfingers 7.12502
rthumb 20.8522 -35.6226
lclavicle -3.91854e-014 8.54774e-015
lhumerus -24.1562 -14.743 92.0243
lradius 44.7522
lwrist -32.2205
lhand -6.22516 4.09818
lfingers 7.12502
lthumb 19.6159 33.1286
rfemur -31.0229 0.973426 21.9063
rtibia 32.3714
rfoot -0.900146 -12.9156
rtoes -9.10891
lfemur 0.497853 -0.432622 -21.7366
ltibia 48.8491
lfoot 16.4616 3.95073
ltoes -6.96784
83
root 1.64219 15.6124 19.4597 -174.906 -4.22204 -181.685
lowerback -1.56833 -3.1671 -3.97716
upperback 2.75875 -4.18811 0.89332
thorax 4.08146 -2.24562 2.91924
lowerneck -28.4947 -1.46397 4.44152
upperneck 47.2087 3.50955 -2.6178
head 29.0223 3.56582 -0.50362
rclavicle -4.76089e-014 -3.18055e-015
rhumerus -49.3837 -19.4642 -62.8691
rradius 26.9208
rwrist 33.268
rhand -4.9806 -6.74596
rfingers 7.12502
rthumb 20.8121 -35.6498
lclavicle -4.76089e-014 -3.18055e-015
lhumerus -23.8712 -13.0104 91.3961
lradius 42.1437
lwrist -32.8746
lhand -6.11276 4.58269
lfingers 7.12502
lthumb 19.724 33.602
rfemur -30.6693 1.13975 21.9375
rtibia 32.1698
rfoot -1.31703 -13.2208
rtoes -8.90385
lfemur -1.23854 0.00144008 -21.7222
ltibia 51.5684
lfoot 16.9159 4.52303
ltoes -6.07041
84
root 1.66845 15.6324 19.3625 -174.693 -4.27627 -181.771
lowerback -1.4068 -3.13412 -4.15828
upperback 2.81422 -4.14761 0.869762
thorax 4.05638 -2.23306 3.00565
lowerneck -28.5248 -1.47136 4.41301
upperneck 47.1137 3.36832 -2.52242
head 28.8583 3.50144 -0.492409
rclavicle 1.38901e-014 -1.13307e-014
rhumerus -48.3733 -18.777 -64.2203
rradius 27.3365
rwrist 33.0622
rhand -5.08184 -6.7322
rfingers 7.12502
rthumb 20.7148 -35.6466
lclavicle 1.38901e-014 -1.13307e-014
lhumerus -23.6103 -11.2648 90.6788
lradius 39.5601
lwrist -33.8021
lhand -5.97176 5.07774
lfingers 7.12502
lthumb 19.8595 34.0831
rfemur -30.2932 1.41069 21.928
rtibia 31.8684
rfoot -1.68143 -13.7222
rtoes -8.57218
lfemur -3.02983 0.36529 -21.7219
ltibia 54.1509
lfoot 17.1972 5.5357
ltoes -5.17283
85
root 1.69509 15.6549 19.2672 -174.459 -4.38551 -181.838
lowerback -1.23573 -3.09963 -4.29692
upperback 2.84046 -4.10591 0.831375
thorax 3.99077 -2.21651 3.0547
lowerneck -28.4978 -1.5152 4.37948
upperneck 47.0499 3.17803 -2.38739
head 28.7014 3.43341 -0.466429
rclavicle 1.91206e-014 -1.05356e-014
rhumerus -47.518 -18.1078 -65.4462
rradius 27.744
rwrist 32.9809
rhand -5.24089 -6.70919
rfingers 7.12502
rthumb 20.562 -35.6402
lclavicle 1.91206e-014 -1.05356e-014
lhumerus -23.4122 -9.53552 89.8846
lradius 37.0896
lwrist -34.899
lhand -5.69931 5.67903
lfingers 7.12502
lthumb 20.1214 34.657
rfemur -29.8957 1.74115 21.914
rtibia 31.4836
rfoot -1.99836 -14.316
rtoes -8.17518
lfemur -4.84527 0.674802 -21.7157
ltibia 56.5659
lfoot 17.2602 6.94654
ltoes -4.26359
86
root 1.72084 15.6792 19.1744 -174.221 -4.52699 -181.872
lowerback -1.04522 -3.06023 -4.37068
upperback 2.84756 -4.0603 0.78829
thorax 3.88849 -2.19455 3.0647
lowerneck -28.4685 -1.59345 4.31976
upperneck 47.013 2.95203 -2.22728
head 28.5809 3.35708 -0.427291
rclavicle 2.98177e-016 -2.88238e-015
rhumerus -46.8084 -17.4816 -66.5222
rradius 28.136
rwrist 33.0388
rhand -5.45458 -6.69859
rfingers 7.12502
rthumb 20.3566 -35.6517
lclavicle 2.98177e-016 -2.88238e-015
lhumerus -23.2804 -7.79423 89.0098
lradius 34.7731
lwrist -36.2373
lhand -5.28909 6.32682
lfingers 7.12502
lthumb 20.5156 35.2629
rfemur -29.4862 2.07445 21.9221
rtibia 31.0405
rfoot -2.27153 -14.9072
rtoes -7.76822
lfemur -6.65849 0.929151 -21.6981
ltibia 58.794
lfoot 17.064 8.62791
ltoes -3.51349
87
root 1.74447 15.7043 19.0843 -173.985 -4.67475 -181.869
lowerback -0.827065 -3.00271 -4.35624
upperback 2.85422 -3.99442 0.7368
thorax 3.76104 -2.15933 3.01945
lowerneck -28.5146 -1.69129 4.26043
upperneck 46.9938 2.695 -2.06707
head 28.5333 3.27289 -0.395825
rclavicle -3.4017e-014 -7.65321e-015
rhumerus -46.2125 -16.9687 -67.432
rradius 28.4949
rwrist 33.2184
rhand -5.69369 -6.72497
rfingers 7.12502
rthumb 20.1268 -35.7024
lclavicle -3.4017e-014 -7.65321e-015
lhumerus -23.2039 -6.07827 88.062
lradius 32.668
lwrist -37.684
lhand -4.73682 7.00973
lfingers 7.12502
lthumb 21.0463 35.8877
rfemur -29.0747 2.36304 21.9662
rtibia 30.5611
rfoot -2.51303 -15.4139
rtoes -7.38879
lfemur -8.44997 1.13168 -21.673
ltibia 60.817
lfoot 16.6052 10.4149
ltoes -2.97526
88
root 1.76532 15.7297 18.9969 -173.753 -4.81107 -181.835
lowerback -0.573577 -2.92295 -4.2562
upperback 2.86788 -3.90291 0.679572
thorax 3.61224 -2.10886 2.92332
lowerneck -28.6057 -1.81167 4.16201
upperneck 46.9817 2.40853 -1.88167
head 28.5204 3.17417 -0.348557
rclavicle -1.92573e-015 4.96962e-015
rhumerus -45.7109 -16.5928 -68.1651
rradius 28.8002
rwrist 33.5033
rhand -5.9623 -6.78931
rfingers 7.12502
rthumb 19.8686 -35.7937
lclavicle -1.92573e-015 4.96962e-015
lhumerus -23.1908 -4.37984 87.0435
lradius 30.8077
lwrist -39.2427
lhand -4.06178 7.6554
lfingers 7.12502
lthumb 21.6946 36.4598
rfemur -28.6711 2.58574 22.0461
rtibia 30.0663
rfoot -2.72813 -15.8035
rtoes -7.0664
lfemur -10.2084 1.28808 -21.6458
ltibia 62.623
lfoot 15.914 12.1516
ltoes -2.65556
89
root 1.78321 15.7549 18.9119 -173.526 -4.92882 -181.783
lowerback -0.299825 -2.81947 -4.08489
upperback 2.89802 -3.78221 0.611761
thorax 3.46151 -2.04256 2.77783
lowerneck -28.7486 -1.93394 4.05812
upperneck 46.9598 2.10865 -1.69393
head 28.5259 3.06784 -0.303638
rclavicle -1.40298e-014 2.16178e-015
rhumerus -45.2791 -16.3513 -68.7432
rradius 29.0412
rwrist 33.7998
rhand -6.22756 -6.91555
rfingers 7.12502
rthumb 19.6136 -35.9462
lclavicle -1.40298e-014 2.16178e-015
lhumerus -23.246 -2.72189 85.9539
lradius 29.1903
lwrist -40.8371
lhand -3.34415 8.18622
lfingers 7.12502
lthumb 22.3836 36.9094
rfemur -28.2752 2.73989 22.1516
rtibia 29.5692
rfoot -2.92342 -16.0797
rtoes -6.80464
lfemur -11.9194 1.3937 -21.6281
ltibia 64.2026
lfoot 15.0556 13.7337
ltoes -2.55298
90
root 1.7984 15.7795 18.8287 -173.301 -5.03517 -181.717
lowerback -0.0161029 -2.70165 -3.86195
upperback 2.92952 -3.6429 0.538506
thorax 3.30241 -1.96567 2.59829
lowerneck -28.892 -2.05144 3.96671
upperneck 46.9133 1.80636 -1.52919
head 28.4992 2.95758 -0.279465
rclavicle 3.24935e-014 2.79541e-016
rhumerus -44.9518 -16.2055 -69.1682
rradius 29.2207
rwrist 34.066
rhand -6.47863 -7.07806
rfingers 7.12502
rthumb 19.3722 -36.1331
lclavicle 3.24935e-014 2.79541e-016
lhumerus -23.4059 -1.09396 84.7921
lradius 27.795
lwrist -42.4475
lhand -2.66338 8.54913
lfingers 7.12502
lthumb 23.037 37.1923
rfemur -27.8936 2.83725 22.2773
rtibia 29.0801
rfoot -3.10281 -16.2728
rtoes -6.59944
lfemur -13.5832 1.44498 -21.6163
ltibia 65.5518
lfoot 14.081 15.1104
ltoes -2.68229
